<svg version="1.1" xmlns="http://www.w3.org/2000/svg" xmlns:xlink="http://www.w3.org/1999/xlink" width="500" height="500"><g data-paper-data="{&quot;description&quot;:&quot;Logo for today cafe\n===================\n\nThis logo was generated by MarkMaker at http://emblemmatic.org/markmaker/ and may be composed of elements designed by others.\n\nThe font is Berkshire Swash designed by Astigmatic and released under the OFL license via Google Fonts: https://www.google.com/fonts/specimen/Berkshire%20Swash. The font includes this copyright statement: Copyright (c) 2012 by Brian J. Bonislawsky DBA Astigmatic (AOETI) (astigma@astigmatic.com), with Reserved Font Name \\\&quot;Berkshire Swash\\\n\nMarkMaker uses semantic data from the Princeton University WordNet database http://wordnet.princeton.edu and font descriptions from Google Fonts https://www.google.com/fonts.&quot;}" fill="none" fill-rule="nonzero" stroke="none" stroke-width="none" stroke-linecap="butt" stroke-linejoin="miter" stroke-miterlimit="10" stroke-dasharray="" stroke-dashoffset="0" font-family="none" font-weight="none" font-size="none" text-anchor="none" style="mix-blend-mode: normal"><path d="M50,450v-400h400v400z" fill="#ec0901" stroke-width="0"></path><g data-paper-data="{&quot;elementType&quot;:&quot;logo&quot;}" fill="#ffffff" stroke-width="1"><g data-paper-data="{&quot;elementType&quot;:&quot;text&quot;}"><g data-paper-data="{&quot;baseline&quot;:75.9765625,&quot;elementType&quot;:&quot;row&quot;}"><g data-paper-data="{&quot;baselineProportion&quot;:0.770678553739475,&quot;fontSize&quot;:100,&quot;baseline&quot;:75.9765625,&quot;elementType&quot;:&quot;word&quot;}"><path d="M129.49968,230.59913c-3.4563,0 -6.00738,-0.72006 -7.65324,-2.16019c-1.64586,-1.44013 -2.46879,-3.74433 -2.46879,-6.91261v-78.38403c-1.31669,0.12344 -2.95226,0.36003 -4.90672,0.70978c-1.95446,0.34975 -4.00149,0.85379 -6.14111,1.51213c-2.13962,0.65834 -4.27923,1.45041 -6.41885,2.37621c-2.13962,0.9258 -4.05293,1.9956 -5.73993,3.20942c-1.68701,1.21382 -3.06541,2.58194 -4.13522,4.10436c-1.06981,1.52242 -1.60471,3.20942 -1.60471,5.06102c0,1.31669 0.17487,2.36592 0.52462,3.14771c0.34975,0.78178 0.75092,1.36812 1.20353,1.75901c0.45261,0.39089 0.91551,0.63777 1.38869,0.74064c0.47318,0.10287 0.81264,0.1543 1.01838,0.1543c1.02866,0 1.87216,-0.17487 2.53051,-0.52462c0.65834,-0.34975 1.25497,-0.72006 1.78987,-1.11095c0.5349,-0.39089 1.03895,-0.76121 1.51213,-1.11095c0.47318,-0.34975 1.01838,-0.52462 1.63557,-0.52462c0.49376,0 1.01838,0.11315 1.57385,0.33946c0.55548,0.22631 1.06981,0.58634 1.54299,1.08009c0.47318,0.49376 0.87436,1.14181 1.20353,1.94417c0.32917,0.80236 0.49376,1.77958 0.49376,2.93169c0,1.64586 -0.31889,3.06541 -0.95666,4.25866c-0.63777,1.19325 -1.4607,2.19105 -2.46879,2.99341c-1.00809,0.80236 -2.16019,1.39898 -3.4563,1.78987c-1.29611,0.39089 -2.58194,0.58634 -3.85748,0.58634c-1.97503,0 -3.75462,-0.33946 -5.33875,-1.01838c-1.58414,-0.67892 -2.93169,-1.615 -4.04264,-2.80825c-1.11095,-1.19325 -1.95446,-2.59223 -2.53051,-4.19694c-0.57605,-1.60471 -0.86408,-3.31229 -0.86408,-5.12274c0,-4.81414 1.32697,-8.98022 3.98092,-12.49824c2.65395,-3.51802 6.28512,-6.43942 10.89353,-8.7642c4.6084,-2.32478 9.97802,-4.04264 16.10884,-5.1536c6.13082,-1.11095 12.69369,-1.66643 19.68859,-1.66643c3.33286,0 6.58344,0.03086 9.75171,0.09258c3.16828,0.06172 6.05882,0.1543 8.67162,0.27774c2.6128,0.12344 4.86557,0.26745 6.75831,0.43204c1.89274,0.16459 3.27114,0.34975 4.13522,0.55548c0.82293,0.20573 1.48127,0.50404 1.97503,0.89494c0.49376,0.39089 0.86408,0.83322 1.11095,1.32697c0.24688,0.49376 0.41146,1.01838 0.49376,1.57385c0.08229,0.55548 0.12344,1.12124 0.12344,1.69729c0,0.45261 -0.06172,0.97723 -0.18516,1.57385c-0.12344,0.59662 -0.3086,1.16239 -0.55548,1.69729c-0.24688,0.5349 -0.55548,0.98752 -0.9258,1.35783c-0.37032,0.37032 -0.82293,0.55548 -1.35783,0.55548c-0.32917,0 -0.66863,-0.14401 -1.01838,-0.43204c-0.34975,-0.28803 -0.83322,-0.63777 -1.45041,-1.04924c-0.6172,-0.41146 -1.45041,-0.88465 -2.49965,-1.41955c-1.04924,-0.5349 -2.42764,-1.02866 -4.13522,-1.48127c-1.70758,-0.45261 -3.80605,-0.86408 -6.29541,-1.23439c-2.48936,-0.37032 -5.50334,-0.6172 -9.04194,-0.74064v78.50747c0,3.16828 -0.82293,5.47248 -2.46879,6.91261c-1.64586,1.44013 -4.17637,2.16019 -7.59152,2.16019z" data-paper-data="{&quot;elementType&quot;:&quot;letter&quot;,&quot;baseline&quot;:72.998046875,&quot;baselineProportion&quot;:0.9894109861019192,&quot;fontSize&quot;:100}"></path><path d="M160.69528,198.01113c0,-5.39019 0.78178,-10.11175 2.34535,-14.16467c1.56357,-4.05293 3.65175,-7.43722 6.26455,-10.15289c2.6128,-2.71567 5.64735,-4.75242 9.10366,-6.11025c3.4563,-1.35783 7.07719,-2.03675 10.86267,-2.03675c3.78548,0 7.40637,0.62748 10.86267,1.88245c3.4563,1.25497 6.49086,3.17856 9.10366,5.77079c2.6128,2.59223 4.70098,5.87366 6.26455,9.84429c1.56357,3.97063 2.34535,8.67162 2.34535,14.10295c0,5.39019 -0.78178,10.16318 -2.34535,14.31897c-1.56357,4.15579 -3.65175,7.65324 -6.26455,10.49235c-2.6128,2.83911 -5.64735,4.98901 -9.10366,6.44971c-3.4563,1.4607 -7.07719,2.19105 -10.86267,2.19105c-3.78548,0 -7.40637,-0.6892 -10.86267,-2.06761c-3.4563,-1.37841 -6.49086,-3.42544 -9.10366,-6.14111c-2.6128,-2.71567 -4.70098,-6.11025 -6.26455,-10.18375c-1.56357,-4.0735 -2.34535,-8.80535 -2.34535,-14.19553M198.65291,197.39393c0,-3.29172 -0.11315,-6.47028 -0.33946,-9.53569c-0.22631,-3.06541 -0.66863,-5.79137 -1.32697,-8.17786c-0.65834,-2.3865 -1.60471,-4.28952 -2.83911,-5.70907c-1.23439,-1.41955 -2.85968,-2.12933 -4.87586,-2.12933c-2.01618,0 -3.64146,0.75092 -4.87586,2.25277c-1.23439,1.50185 -2.18076,3.47688 -2.83911,5.92509c-0.65834,2.44822 -1.09038,5.23589 -1.29611,8.36302c-0.20573,3.12713 -0.3086,6.33656 -0.3086,9.62827c0,3.29172 0.10287,6.51143 0.3086,9.65913c0.20573,3.14771 0.63777,5.95595 1.29611,8.42474c0.65834,2.46879 1.60471,4.45411 2.83911,5.95595c1.23439,1.50185 2.85968,2.25277 4.87586,2.25277c2.01618,0 3.64146,-0.78178 4.87586,-2.34535c1.23439,-1.56357 2.18076,-3.62089 2.83911,-6.17197c0.65834,-2.55108 1.10067,-5.43133 1.32697,-8.64076c0.22631,-3.20942 0.33946,-6.46 0.33946,-9.75171z" data-paper-data="{&quot;elementType&quot;:&quot;letter&quot;,&quot;baseline&quot;:50.68359375,&quot;baselineProportion&quot;:0.9848197343453511,&quot;fontSize&quot;:100}"></path><path d="M266.69518,168.94114c-0.78178,-4.11465 -1.87216,-7.95156 -3.27114,-11.51073c-1.39898,-3.55917 -3.0757,-6.63487 -5.03016,-9.2271c-1.95446,-2.59223 -4.17637,-4.62898 -6.66573,-6.11025c-2.48936,-1.48127 -5.17417,-2.22191 -8.05442,-2.22191c-1.64586,0 -3.13742,0.20573 -4.47468,0.6172c-1.33726,0.41146 -2.49965,0.89494 -3.48716,1.45041c-0.98752,0.55548 -1.80016,1.09038 -2.43793,1.60471c-0.63777,0.51433 -1.10067,0.89494 -1.38869,1.14181l-1.60471,-2.16019c0.98752,-1.27554 2.19105,-2.46879 3.6106,-3.57974c1.41955,-1.11095 2.97283,-2.05732 4.65984,-2.83911c1.68701,-0.78178 3.46659,-1.39898 5.33875,-1.85159c1.87216,-0.45261 3.73404,-0.67892 5.58563,-0.67892c6.08968,0 11.43872,1.32697 16.04712,3.98092c4.6084,2.65395 8.4556,6.40856 11.54159,11.26385c3.08599,4.85528 5.41076,10.71866 6.97433,17.59012c1.56357,6.87146 2.34535,14.50413 2.34535,22.89801c0,6.78917 -0.6892,12.75541 -2.06761,17.89872c-1.37841,5.14331 -3.34315,9.4534 -5.89423,12.93028c-2.55108,3.47688 -5.64735,6.08968 -9.28882,7.8384c-3.64146,1.74873 -7.74582,2.62309 -12.31308,2.62309c-3.16828,0 -6.38799,-0.56576 -9.65913,-1.69729c-3.27114,-1.13153 -6.23369,-2.97283 -8.88764,-5.52391c-2.65395,-2.55108 -4.82442,-5.89423 -6.51143,-10.02945c-1.68701,-4.13522 -2.53051,-9.20652 -2.53051,-15.21391c0,-5.18446 0.73035,-9.79286 2.19105,-13.82521c1.4607,-4.03235 3.42544,-7.43722 5.89423,-10.21461c2.46879,-2.77739 5.32847,-4.89643 8.57904,-6.35713c3.25057,-1.4607 6.6863,-2.19105 10.30719,-2.19105c1.39898,0 2.65395,0.11315 3.7649,0.33946c1.11095,0.22631 2.0779,0.50404 2.90083,0.83322c0.82293,0.32917 1.54299,0.6892 2.16019,1.08009c0.6172,0.39089 1.17267,0.7715 1.66643,1.14181zM267.43582,196.09781c0,-0.45261 0,-1.36812 0,-2.74653c0,-1.37841 -0.04115,-2.96255 -0.12344,-4.75242c-0.08229,-1.78987 -0.22631,-3.6929 -0.43204,-5.70907c-0.20573,-2.01618 -0.5349,-3.88834 -0.98752,-5.61649c-0.98752,-1.27554 -2.08818,-2.41736 -3.302,-3.42544c-1.21382,-1.00809 -2.7671,-1.51213 -4.65984,-1.51213c-3.20942,0 -5.56506,2.09847 -7.06691,6.29541c-1.50185,4.19694 -2.25277,10.69808 -2.25277,19.50343c0,3.86777 0.17487,7.40637 0.52462,10.61579c0.34975,3.20942 0.88465,5.96624 1.60471,8.27044c0.72006,2.3042 1.64586,4.09407 2.77739,5.36961c1.13153,1.27554 2.47907,1.91331 4.04264,1.91331c6.58344,0 9.87515,-9.40197 9.87515,-28.20591" data-paper-data="{&quot;elementType&quot;:&quot;letter&quot;,&quot;baseline&quot;:75.9765625,&quot;baselineProportion&quot;:0.989821882951654,&quot;fontSize&quot;:100}"></path><path d="M318.69033,170.60758c-1.39898,0 -2.69509,0.16459 -3.88834,0.49376c-1.19325,0.32917 -2.22191,0.74064 -3.08599,1.23439c-0.86408,0.49376 -1.54299,1.03895 -2.03675,1.63557c-0.49376,0.59662 -0.74064,1.16239 -0.74064,1.69729c0,0.6172 0.31889,1.05952 0.95666,1.32697c0.63777,0.26745 1.34755,0.57605 2.12933,0.9258c0.78178,0.34975 1.49156,0.8435 2.12933,1.48127c0.63777,0.63777 0.95666,1.615 0.95666,2.93169c0,0.86408 -0.17487,1.65615 -0.52462,2.37621c-0.34975,0.72006 -0.82293,1.35783 -1.41955,1.91331c-0.59662,0.55548 -1.29611,0.98752 -2.09847,1.29611c-0.80236,0.3086 -1.63557,0.4629 -2.49965,0.4629c-2.3042,0 -4.16608,-0.78178 -5.58563,-2.34535c-1.41955,-1.56357 -2.12933,-3.64146 -2.12933,-6.23369c0,-2.50993 0.65834,-4.65984 1.97503,-6.44971c1.31669,-1.78987 3.03455,-3.26086 5.1536,-4.41296c2.11904,-1.1521 4.51583,-2.00589 7.19035,-2.56137c2.67452,-0.55548 5.34904,-0.83322 8.02356,-0.83322c3.20942,0 6.27484,0.34975 9.19624,1.04924c2.9214,0.69949 5.50334,1.81044 7.74582,3.33286c2.24248,1.52242 4.03235,3.4563 5.36961,5.80165c1.33726,2.34535 2.00589,5.18446 2.00589,8.51732v34.87164c0,0.37032 0.02057,0.78178 0.06172,1.23439c0.04115,0.45261 0.14401,0.86408 0.3086,1.23439c0.16459,0.37032 0.41146,0.67892 0.74064,0.9258c0.32917,0.24688 0.80236,0.37032 1.41955,0.37032c0.74064,0 1.42984,-0.27774 2.06761,-0.83322c0.63777,-0.55548 1.20353,-1.12124 1.69729,-1.69729l1.54299,1.29611c-0.6172,0.86408 -1.35783,1.81044 -2.22191,2.83911c-0.86408,1.02866 -1.91331,1.9956 -3.14771,2.90083c-1.23439,0.90522 -2.67452,1.66643 -4.32038,2.28363c-1.64586,0.6172 -3.51802,0.9258 -5.61649,0.9258c-2.59223,0 -4.89643,-0.7715 -6.91261,-2.31449c-2.01618,-1.54299 -3.33286,-3.9192 -3.95006,-7.12863c-1.31669,1.7693 -2.68481,3.25057 -4.10436,4.44382c-1.41955,1.19325 -2.86997,2.16019 -4.35124,2.90083c-1.48127,0.74064 -2.97283,1.27554 -4.47468,1.60471c-1.50185,0.32917 -3.01398,0.49376 -4.5364,0.49376c-1.97503,0 -3.88834,-0.3086 -5.73993,-0.9258c-1.85159,-0.6172 -3.50774,-1.59443 -4.96844,-2.93169c-1.4607,-1.33726 -2.63337,-3.0757 -3.51802,-5.21532c-0.88465,-2.13962 -1.32697,-4.75242 -1.32697,-7.8384c0,-3.74433 0.74064,-6.80974 2.22191,-9.19624c1.48127,-2.3865 3.42544,-4.39239 5.83251,-6.01767c2.40707,-1.62529 5.14331,-3.01398 8.20872,-4.16608c3.06541,-1.1521 6.20283,-2.36592 9.41226,-3.64146c2.3865,-0.94637 4.12493,-2.35564 5.21532,-4.2278c1.09038,-1.87216 1.63557,-3.79576 1.63557,-5.77079c0,-3.04484 -0.89494,-5.48277 -2.68481,-7.31379c-1.78987,-1.83102 -4.2278,-2.74653 -7.31379,-2.74653zM328.50377,197.64081c0,-1.02866 -0.32917,-1.81044 -0.98752,-2.34535c-0.65834,-0.5349 -1.50185,-0.80236 -2.53051,-0.80236c-1.44013,0 -2.80825,0.32917 -4.10436,0.98752c-1.29611,0.65834 -2.43793,1.62529 -3.42544,2.90083c-0.98752,1.27554 -1.7693,2.84939 -2.34535,4.72156c-0.57605,1.87216 -0.86408,4.04264 -0.86408,6.51143c0,2.3865 0.17487,4.36153 0.52462,5.92509c0.34975,1.56357 0.82293,2.80825 1.41955,3.73404c0.59662,0.9258 1.28583,1.57385 2.06761,1.94417c0.78178,0.37032 1.60471,0.55548 2.46879,0.55548c1.06981,0 2.0779,-0.27774 3.02427,-0.83322c0.94637,-0.55548 1.7693,-1.26525 2.46879,-2.12933c0.69949,-0.86408 1.25497,-1.83102 1.66643,-2.90083c0.41146,-1.06981 0.6172,-2.13962 0.6172,-3.20942v-15.05961" data-paper-data="{&quot;elementType&quot;:&quot;letter&quot;,&quot;baseline&quot;:50.68359375,&quot;baselineProportion&quot;:0.9848197343453511,&quot;fontSize&quot;:100}"></path><path d="M416.66667,175.23655c0,7.5298 -0.73035,14.80244 -2.19105,21.81792c-1.4607,7.01547 -3.47688,13.59891 -6.04853,19.75031c-2.57165,6.1514 -5.62678,11.76789 -9.16538,16.84948c-3.5386,5.08159 -7.38579,9.43283 -11.54159,13.05372c-4.15579,3.62089 -8.54818,6.43942 -13.17716,8.4556c-4.62898,2.01618 -9.30939,3.02427 -14.04123,3.02427c-3.62089,0 -6.41885,-0.60691 -8.39388,-1.82073c-1.97503,-1.21382 -2.96255,-2.84939 -2.96255,-4.90672c0,-0.78178 0.12344,-1.54299 0.37032,-2.28363c0.24688,-0.74064 0.57605,-1.39898 0.98752,-1.97503c0.41146,-0.57605 0.90522,-1.03895 1.48127,-1.38869c0.57605,-0.34975 1.19325,-0.52462 1.85159,-0.52462c0.78178,0 1.42984,0.39089 1.94417,1.17267c0.51433,0.78178 1.05952,1.63557 1.63557,2.56137c0.57605,0.9258 1.27554,1.77958 2.09847,2.56137c0.82293,0.78178 1.95446,1.17267 3.39458,1.17267c1.85159,0 3.78548,-0.31889 5.80165,-0.95666c2.01618,-0.63777 4.04264,-1.55328 6.07939,-2.74653c2.03675,-1.19325 4.0735,-2.64366 6.11025,-4.35124c2.03675,-1.70758 4.04264,-3.6106 6.01767,-5.70907c-1.1521,-4.15579 -2.47907,-8.69219 -3.98092,-13.6092c-1.50185,-4.917 -3.08599,-9.86487 -4.75242,-14.84359c-1.66643,-4.97872 -3.37401,-9.78257 -5.12274,-14.41155c-1.74873,-4.62898 -3.4563,-8.73334 -5.12274,-12.31308c-1.66643,-3.57974 -3.27114,-6.44971 -4.81414,-8.6099c-1.54299,-2.16019 -2.91111,-3.24028 -4.10436,-3.24028c-0.78178,0 -1.38869,0.12344 -1.82073,0.37032c-0.43204,0.24688 -0.93608,0.59662 -1.51213,1.04924l-1.23439,-1.54299c0.82293,-0.69949 1.68701,-1.41955 2.59223,-2.16019c0.90522,-0.74064 1.97503,-1.41955 3.20942,-2.03675c1.23439,-0.6172 2.67452,-1.12124 4.32038,-1.51213c1.64586,-0.39089 3.62089,-0.58634 5.92509,-0.58634c2.50993,0 4.845,0.56576 7.00519,1.69729c2.16019,1.13153 4.12493,3.21971 5.89423,6.26455c1.27554,2.26306 2.60251,4.97872 3.98092,8.147c1.37841,3.16828 2.7671,6.70687 4.16608,10.61579c1.39898,3.90891 2.80825,8.13671 4.2278,12.6834c1.41955,4.54669 2.84939,9.30939 4.28952,14.28811c2.55108,-5.34904 4.6084,-11.01697 6.17197,-17.00378c1.56357,-5.98681 2.34535,-12.1485 2.34535,-18.48505c0,-2.26306 -0.14401,-4.19694 -0.43204,-5.80165c-0.28803,-1.60471 -0.6172,-2.97283 -0.98752,-4.10436c-0.37032,-1.13153 -0.69949,-2.09847 -0.98752,-2.90083c-0.28803,-0.80236 -0.43204,-1.51213 -0.43204,-2.12933c0,-0.6172 0.24688,-1.14181 0.74064,-1.57385c0.49376,-0.43204 1.09038,-0.7715 1.78987,-1.01838c0.69949,-0.24688 1.40927,-0.42175 2.12933,-0.52462c0.72006,-0.10287 1.32697,-0.1543 1.82073,-0.1543c1.11095,0 1.96474,0.22631 2.56137,0.67892c0.59662,0.45261 1.03895,1.10067 1.32697,1.94417c0.28803,0.8435 0.45261,1.86188 0.49376,3.05513c0.04115,1.19325 0.06172,2.53051 0.06172,4.01178z" data-paper-data="{&quot;elementType&quot;:&quot;letter&quot;,&quot;baseline&quot;:50.68359375,&quot;baselineProportion&quot;:0.6915389740173218,&quot;fontSize&quot;:100}"></path></g></g><g data-paper-data="{&quot;baseline&quot;:75.9765625,&quot;elementType&quot;:&quot;row&quot;}"><g data-paper-data="{&quot;baselineProportion&quot;:0.770678553739475,&quot;fontSize&quot;:100,&quot;baseline&quot;:75.9765625,&quot;elementType&quot;:&quot;word&quot;}"><path d="M125.67305,250.88496c-1.11095,0 -2.40707,0.22631 -3.88834,0.67892c-1.48127,0.45261 -2.99341,1.3064 -4.5364,2.56137c-1.54299,1.25497 -3.05513,3.01398 -4.5364,5.27704c-1.48127,2.26306 -2.80825,5.19474 -3.98092,8.79506c-1.17267,3.60032 -2.11904,7.97213 -2.83911,13.11544c-0.72006,5.14331 -1.08009,11.21241 -1.08009,18.20731c0,6.66573 0.36003,12.44681 1.08009,17.34324c0.72006,4.89643 1.68701,9.06251 2.90083,12.49824c1.21382,3.43573 2.60251,6.24398 4.16608,8.42474c1.56357,2.18076 3.20942,3.87806 4.93758,5.09188c1.72815,1.21382 3.4563,2.04704 5.18446,2.49965c1.72815,0.45261 3.35344,0.67892 4.87586,0.67892c1.60471,0 3.23,-0.20573 4.87586,-0.6172c1.64586,-0.41146 3.26086,-1.00809 4.845,-1.78987c1.58414,-0.78178 3.10656,-1.72815 4.56726,-2.83911c1.4607,-1.11095 2.80825,-2.3865 4.04264,-3.82662l2.77739,2.77739c-1.23439,1.52242 -2.71567,3.0757 -4.44382,4.65984c-1.72815,1.58414 -3.73404,3.02427 -6.01767,4.32038c-2.28363,1.29611 -4.845,2.35564 -7.6841,3.17856c-2.83911,0.82293 -5.98681,1.23439 -9.44312,1.23439c-5.39019,0 -10.39977,-1.02866 -15.02875,-3.08599c-4.62898,-2.05732 -8.66133,-5.25646 -12.09706,-9.59741c-3.43573,-4.34095 -6.13082,-9.90601 -8.08528,-16.69518c-1.95446,-6.78917 -2.93169,-14.9156 -2.93169,-24.37928c0,-8.88764 1.02866,-16.68489 3.08599,-23.39177c2.05732,-6.70687 4.85528,-12.31308 8.39388,-16.81862c3.5386,-4.50554 7.69439,-7.90012 12.46738,-10.18375c4.77299,-2.28363 9.85458,-3.42544 15.24477,-3.42544c3.57974,0 6.8406,0.33946 9.78257,1.01838c2.94197,0.67892 5.48277,1.66643 7.62238,2.96255c2.13962,1.29611 3.79576,2.90083 4.96844,4.81414c1.17267,1.91331 1.75901,4.08379 1.75901,6.51143c0,1.11095 -0.18516,2.27334 -0.55548,3.48716c-0.37032,1.21382 -0.93608,2.32478 -1.69729,3.33286c-0.76121,1.00809 -1.69729,1.83102 -2.80825,2.46879c-1.11095,0.63777 -2.40707,0.95666 -3.88834,0.95666c-1.31669,0 -2.33506,-0.28803 -3.05513,-0.86408c-0.72006,-0.57605 -1.25497,-1.33726 -1.60471,-2.28363c-0.34975,-0.94637 -0.57605,-2.02646 -0.67892,-3.24028c-0.10287,-1.21382 -0.17487,-2.4585 -0.21602,-3.73404c-0.04115,-1.27554 -0.13373,-2.52022 -0.27774,-3.73404c-0.14401,-1.21382 -0.43204,-2.29392 -0.86408,-3.24028c-0.43204,-0.94637 -1.05952,-1.70758 -1.88245,-2.28363c-0.82293,-0.57605 -1.97503,-0.86408 -3.4563,-0.86408z" data-paper-data="{&quot;elementType&quot;:&quot;letter&quot;,&quot;baseline&quot;:72.998046875,&quot;baselineProportion&quot;:0.8577165806081469,&quot;fontSize&quot;:100}"></path><path d="M176.61897,278.84398c-1.39898,0 -2.69509,0.16459 -3.88834,0.49376c-1.19325,0.32917 -2.22191,0.74064 -3.08599,1.23439c-0.86408,0.49376 -1.54299,1.03895 -2.03675,1.63557c-0.49376,0.59662 -0.74064,1.16239 -0.74064,1.69729c0,0.6172 0.31889,1.05952 0.95666,1.32697c0.63777,0.26745 1.34755,0.57605 2.12933,0.9258c0.78178,0.34975 1.49156,0.8435 2.12933,1.48127c0.63777,0.63777 0.95666,1.615 0.95666,2.93169c0,0.86408 -0.17487,1.65615 -0.52462,2.37621c-0.34975,0.72006 -0.82293,1.35783 -1.41955,1.91331c-0.59662,0.55548 -1.29611,0.98752 -2.09847,1.29611c-0.80236,0.3086 -1.63557,0.4629 -2.49965,0.4629c-2.3042,0 -4.16608,-0.78178 -5.58563,-2.34535c-1.41955,-1.56357 -2.12933,-3.64146 -2.12933,-6.23369c0,-2.50993 0.65834,-4.65984 1.97503,-6.44971c1.31669,-1.78987 3.03455,-3.26086 5.1536,-4.41296c2.11904,-1.1521 4.51583,-2.00589 7.19035,-2.56137c2.67452,-0.55548 5.34904,-0.83322 8.02356,-0.83322c3.20942,0 6.27484,0.34975 9.19624,1.04924c2.9214,0.69949 5.50334,1.81044 7.74582,3.33286c2.24248,1.52242 4.03235,3.4563 5.36961,5.80165c1.33726,2.34535 2.00589,5.18446 2.00589,8.51732v34.87164c0,0.37032 0.02057,0.78178 0.06172,1.23439c0.04115,0.45261 0.14401,0.86408 0.3086,1.23439c0.16459,0.37032 0.41146,0.67892 0.74064,0.9258c0.32917,0.24688 0.80236,0.37032 1.41955,0.37032c0.74064,0 1.42984,-0.27774 2.06761,-0.83322c0.63777,-0.55548 1.20353,-1.12124 1.69729,-1.69729l1.54299,1.29611c-0.6172,0.86408 -1.35783,1.81044 -2.22191,2.83911c-0.86408,1.02866 -1.91331,1.9956 -3.14771,2.90083c-1.23439,0.90522 -2.67452,1.66643 -4.32038,2.28363c-1.64586,0.6172 -3.51802,0.9258 -5.61649,0.9258c-2.59223,0 -4.89643,-0.7715 -6.91261,-2.31449c-2.01618,-1.54299 -3.33286,-3.9192 -3.95006,-7.12863c-1.31669,1.7693 -2.68481,3.25057 -4.10436,4.44382c-1.41955,1.19325 -2.86997,2.16019 -4.35124,2.90083c-1.48127,0.74064 -2.97283,1.27554 -4.47468,1.60471c-1.50185,0.32917 -3.01398,0.49376 -4.5364,0.49376c-1.97503,0 -3.88834,-0.3086 -5.73993,-0.9258c-1.85159,-0.6172 -3.50774,-1.59443 -4.96844,-2.93169c-1.4607,-1.33726 -2.63337,-3.0757 -3.51802,-5.21532c-0.88465,-2.13962 -1.32697,-4.75242 -1.32697,-7.8384c0,-3.74433 0.74064,-6.80974 2.22191,-9.19624c1.48127,-2.3865 3.42544,-4.39239 5.83251,-6.01767c2.40707,-1.62529 5.14331,-3.01398 8.20872,-4.16608c3.06541,-1.1521 6.20283,-2.36592 9.41226,-3.64146c2.3865,-0.94637 4.12493,-2.35564 5.21532,-4.2278c1.09038,-1.87216 1.63557,-3.79576 1.63557,-5.77079c0,-3.04484 -0.89494,-5.48277 -2.68481,-7.31379c-1.78987,-1.83102 -4.2278,-2.74653 -7.31379,-2.74653zM186.4324,305.87722c0,-1.02866 -0.32917,-1.81044 -0.98752,-2.34535c-0.65834,-0.5349 -1.50185,-0.80236 -2.53051,-0.80236c-1.44013,0 -2.80825,0.32917 -4.10436,0.98752c-1.29611,0.65834 -2.43793,1.62529 -3.42544,2.90083c-0.98752,1.27554 -1.7693,2.84939 -2.34535,4.72156c-0.57605,1.87216 -0.86408,4.04264 -0.86408,6.51143c0,2.3865 0.17487,4.36153 0.52462,5.92509c0.34975,1.56357 0.82293,2.80825 1.41955,3.73404c0.59662,0.9258 1.28583,1.57385 2.06761,1.94417c0.78178,0.37032 1.60471,0.55548 2.46879,0.55548c1.06981,0 2.0779,-0.27774 3.02427,-0.83322c0.94637,-0.55548 1.7693,-1.26525 2.46879,-2.12933c0.69949,-0.86408 1.25497,-1.83102 1.66643,-2.90083c0.41146,-1.06981 0.6172,-2.13962 0.6172,-3.20942v-15.05961" data-paper-data="{&quot;elementType&quot;:&quot;letter&quot;,&quot;baseline&quot;:50.68359375,&quot;baselineProportion&quot;:0.9848197343453511,&quot;fontSize&quot;:100}"></path><path d="M255.83251,246.07082c-1.1521,0 -2.24248,0.24688 -3.27114,0.74064c-1.02866,0.49376 -1.9236,1.28583 -2.68481,2.37621c-0.76121,1.09038 -1.36812,2.47907 -1.82073,4.16608c-0.45261,1.68701 -0.67892,3.72376 -0.67892,6.11025v15.18305h13.51662v4.44382h-13.51662v48.63513c0,5.59592 -0.73035,10.7598 -2.19105,15.49165c-1.4607,4.73184 -3.67232,8.81563 -6.63487,12.25136c-2.96255,3.43573 -6.66573,6.12054 -11.10955,8.05442c-4.44382,1.93388 -9.62827,2.90083 -15.55337,2.90083c-2.09847,0 -4.11465,-0.17487 -6.04853,-0.52462c-1.93388,-0.34975 -3.64146,-0.83322 -5.12274,-1.45041c-1.48127,-0.6172 -2.66423,-1.34755 -3.54888,-2.19105c-0.88465,-0.8435 -1.32697,-1.77958 -1.32697,-2.80825c0,-0.74064 0.10287,-1.49156 0.3086,-2.25277c0.20573,-0.76121 0.51433,-1.45041 0.9258,-2.06761c0.41146,-0.6172 0.91551,-1.12124 1.51213,-1.51213c0.59662,-0.39089 1.28583,-0.58634 2.06761,-0.58634c0.45261,0 0.85379,0.22631 1.20353,0.67892c0.34975,0.45261 0.70978,1.00809 1.08009,1.66643c0.37032,0.65834 0.79207,1.38869 1.26525,2.19105c0.47318,0.80236 1.08009,1.53271 1.82073,2.19105c0.74064,0.65834 1.65615,1.21382 2.74653,1.66643c1.09038,0.45261 2.41736,0.67892 3.98092,0.67892c2.09847,0 3.95006,-0.42175 5.55477,-1.26525c1.60471,-0.8435 2.98312,-2.00589 4.13522,-3.48716c1.1521,-1.48127 2.11904,-3.23 2.90083,-5.24618c0.78178,-2.01618 1.39898,-4.17637 1.85159,-6.48057c0.45261,-2.3042 0.7715,-4.71127 0.95666,-7.22121c0.18516,-2.50993 0.27774,-5.01987 0.27774,-7.5298v-51.78284h-11.35643v-4.44382h11.35643v-7.22121c0,-3.62089 0.44232,-6.77888 1.32697,-9.47398c0.88465,-2.69509 2.05732,-4.98901 3.51802,-6.88175c1.4607,-1.89274 3.11685,-3.43573 4.96844,-4.62898c1.85159,-1.19325 3.73404,-2.13962 5.64735,-2.83911c1.91331,-0.69949 3.77519,-1.17267 5.58563,-1.41955c1.81044,-0.24688 3.39458,-0.37032 4.75242,-0.37032c2.9214,0 5.51363,0.21602 7.77668,0.64806c2.26306,0.43204 4.15579,1.00809 5.67821,1.72815c1.52242,0.72006 2.67452,1.55328 3.4563,2.49965c0.78178,0.94637 1.17267,1.91331 1.17267,2.90083c0,0.74064 -0.11315,1.49156 -0.33946,2.25277c-0.22631,0.76121 -0.54519,1.4607 -0.95666,2.09847c-0.41146,0.63777 -0.91551,1.1521 -1.51213,1.54299c-0.59662,0.39089 -1.26525,0.58634 -2.00589,0.58634c-0.45261,0 -0.86408,-0.24688 -1.23439,-0.74064c-0.37032,-0.49376 -0.76121,-1.11095 -1.17267,-1.85159c-0.41146,-0.74064 -0.86408,-1.54299 -1.35783,-2.40707c-0.49376,-0.86408 -1.10067,-1.66643 -1.82073,-2.40707c-0.72006,-0.74064 -1.57385,-1.35783 -2.56137,-1.85159c-0.98752,-0.49376 -2.16019,-0.74064 -3.51802,-0.74064z" data-paper-data="{&quot;elementType&quot;:&quot;letter&quot;,&quot;baseline&quot;:75.9765625,&quot;baselineProportion&quot;:0.770678553739475,&quot;fontSize&quot;:100}"></path><path d="M284.99137,309.51868c0,1.31669 0.19545,2.74653 0.58634,4.28952c0.39089,1.54299 0.95666,3.09627 1.69729,4.65984c0.74064,1.56357 1.65615,3.05513 2.74653,4.47468c1.09038,1.41955 2.34535,2.68481 3.7649,3.79576c1.41955,1.11095 2.99341,1.9956 4.72156,2.65395c1.72815,0.65834 3.62089,0.98752 5.67821,0.98752c1.44013,0 2.77739,-0.16459 4.01178,-0.49376c1.23439,-0.32917 2.3865,-0.78178 3.4563,-1.35783c1.06981,-0.57605 2.09847,-1.24468 3.08599,-2.00589c0.98752,-0.76121 1.97503,-1.57385 2.96255,-2.43793l1.54299,1.48127c-0.94637,1.27554 -2.16019,2.67452 -3.64146,4.19694c-1.48127,1.52242 -3.27114,2.95226 -5.36961,4.28952c-2.09847,1.33726 -4.54669,2.44822 -7.34465,3.33286c-2.79796,0.88465 -5.98681,1.32697 -9.56655,1.32697c-3.57974,0 -7.06691,-0.64806 -10.46149,-1.94417c-3.39458,-1.29611 -6.40856,-3.24028 -9.04194,-5.83251c-2.63337,-2.59223 -4.74213,-5.82223 -6.32627,-9.68999c-1.58414,-3.86777 -2.37621,-8.39388 -2.37621,-13.57834c0,-3.74433 0.47318,-7.18006 1.41955,-10.30719c0.94637,-3.12713 2.2322,-5.94567 3.85748,-8.4556c1.62529,-2.50993 3.51802,-4.71127 5.67821,-6.60401c2.16019,-1.89274 4.43353,-3.46659 6.82003,-4.72156c2.3865,-1.25497 4.82442,-2.20134 7.31379,-2.83911c2.48936,-0.63777 4.88614,-0.95666 7.19035,-0.95666c3.04484,0 5.69879,0.32917 7.96184,0.98752c2.26306,0.65834 4.14551,1.54299 5.64735,2.65395c1.50185,1.11095 2.62309,2.39678 3.36372,3.85748c0.74064,1.4607 1.11095,2.99341 1.11095,4.59812c0,1.93388 -0.55548,3.67232 -1.66643,5.21532c-1.11095,1.54299 -2.59223,2.89054 -4.44382,4.04264l-24.37928,14.38069M297.39703,296.98958c0.5349,-0.32917 0.97723,-0.64806 1.32697,-0.95666c0.34975,-0.3086 0.62748,-0.67892 0.83322,-1.11095c0.20573,-0.43204 0.36003,-0.96694 0.4629,-1.60471c0.10287,-0.63777 0.1543,-1.42984 0.1543,-2.37621c0,-1.02866 -0.11315,-2.17048 -0.33946,-3.42544c-0.22631,-1.25497 -0.60691,-2.43793 -1.14181,-3.54888c-0.5349,-1.11095 -1.21382,-2.03675 -2.03675,-2.77739c-0.82293,-0.74064 -1.81044,-1.11095 -2.96255,-1.11095c-1.48127,0 -2.74653,0.44232 -3.79576,1.32697c-1.04924,0.88465 -1.91331,2.02646 -2.59223,3.42544c-0.67892,1.39898 -1.21382,2.99341 -1.60471,4.78328c-0.39089,1.78987 -0.6892,3.59003 -0.89494,5.40047c-0.20573,1.81044 -0.32917,3.54888 -0.37032,5.21532c-0.04115,1.66643 -0.06172,3.0757 -0.06172,4.2278z" data-paper-data="{&quot;elementType&quot;:&quot;letter&quot;,&quot;baseline&quot;:50.68359375,&quot;baselineProportion&quot;:0.9866920152091255,&quot;fontSize&quot;:100}"></path></g></g></g></g></g></svg>